<?xml version="1.0" encoding="UTF-8" standalone="no"?>
<!DOCTYPE svg PUBLIC "-//W3C//DTD SVG 1.1//EN" "http://www.w3.org/Graphics/SVG/1.1/DTD/svg11.dtd">
<svg width="100%" height="100%" viewBox="0 0 1180 420" version="1.1" xmlns="http://www.w3.org/2000/svg" xmlns:xlink="http://www.w3.org/1999/xlink" xml:space="preserve" xmlns:serif="http://www.serif.com/" style="fill-rule:evenodd;clip-rule:evenodd;stroke-linejoin:round;stroke-miterlimit:2;">
    <g transform="matrix(4.166667,0,0,4.166667,-716.549792,-2552.050122)">
        <path d="M347.201,627.103L357.781,627.103L357.781,616.522L347.201,616.522L347.201,627.103ZM357.781,633.194L347.201,633.194L347.201,674.473L357.781,674.473L357.781,633.194ZM364.478,650.587L364.478,674.473L375.059,674.473L375.059,650.347C375.059,648.784 375.419,647.421 376.102,646.246C376.782,645.069 377.735,644.143 378.934,643.494C380.131,642.843 381.511,642.491 383.074,642.491C384.465,642.491 385.633,642.705 386.561,643.08C387.493,643.456 388.26,643.983 388.819,644.589C389.385,645.201 389.833,645.879 390.115,646.579C390.397,647.285 390.621,647.972 390.717,648.636C390.811,649.299 390.849,649.875 390.849,650.347L390.849,674.473L401.429,674.473L401.429,650.587C401.429,647.876 401.008,645.386 400.187,643.145C399.363,640.894 398.153,638.943 396.579,637.308C395.011,635.681 393.075,634.405 390.809,633.515C388.544,632.623 385.96,632.152 383.074,632.152C380.256,632.152 377.711,632.636 375.434,633.554C373.166,634.469 371.189,635.773 369.568,637.429C367.94,639.091 366.673,641.052 365.801,643.28C364.932,645.503 364.491,647.942 364.478,650.587M435.299,661.329C434.697,662.423 433.934,663.329 433.015,664.039C432.102,664.744 431.077,665.268 429.97,665.616C428.86,665.962 427.716,666.137 426.562,666.137C424.751,666.137 423.082,665.746 421.579,664.987C420.09,664.236 418.802,663.145 417.746,661.728L446.921,649.464C446.414,646.699 445.528,644.232 444.303,642.091C443.083,639.958 441.562,638.125 439.76,636.653C437.967,635.185 435.934,634.055 433.723,633.3C431.512,632.546 429.134,632.152 426.642,632.152C423.71,632.152 420.945,632.746 418.4,633.861C415.854,634.977 413.602,636.558 411.681,638.537C409.753,640.525 408.222,642.831 407.14,645.443C406.057,648.054 405.482,650.868 405.482,653.873C405.482,656.879 406.061,659.692 407.14,662.276C408.224,664.875 409.751,667.159 411.681,669.13C413.61,671.099 415.852,672.654 418.4,673.75C420.942,674.846 423.704,675.434 426.642,675.434C430.075,675.434 433.144,674.816 435.847,673.644C438.54,672.478 440.81,670.832 442.632,668.728C444.456,666.625 445.785,664.145 446.6,661.329L435.299,661.329ZM415.341,653.311C415.447,650.947 415.996,648.868 416.998,647.1C418.001,645.326 419.348,643.947 421.005,642.958C422.662,641.97 424.504,641.449 426.562,641.449C428.259,641.449 429.803,641.787 431.198,642.424C432.582,643.057 433.763,643.96 434.738,645.137L415.341,653.311Z" style="fill:white;fill-rule:nonzero;"/>
    </g>
    <g transform="matrix(4.166667,0,0,4.166667,206.216458,262.259462)">
        <path d="M0,-60.595L-10.581,-60.595L-10.581,-38.313C-12.184,-39.956 -13.994,-41.161 -16.004,-41.947C-18.005,-42.729 -20.244,-43.124 -22.684,-43.123C-25.405,-43.12 -27.967,-42.533 -30.324,-41.426C-32.699,-40.31 -34.804,-38.763 -36.604,-36.79C-38.402,-34.817 -39.823,-32.523 -40.838,-29.936C-41.859,-27.334 -42.401,-24.54 -42.401,-21.561C-42.401,-18.555 -41.861,-15.747 -40.838,-13.158C-39.812,-10.559 -38.347,-8.268 -36.47,-6.304C-34.587,-4.335 -32.339,-2.782 -29.751,-1.684C-27.166,-0.587 -24.3,0 -21.161,0C-18.048,0 -15.184,-0.587 -12.611,-1.684C-10.035,-2.782 -7.8,-4.335 -5.917,-6.304C-4.042,-8.268 -2.59,-10.559 -1.563,-13.158C-0.542,-15.747 0,-18.555 0,-21.561L0,-60.595ZM-10.581,-21.48C-10.581,-19.864 -10.868,-18.352 -11.408,-16.965C-11.955,-15.568 -12.713,-14.333 -13.68,-13.266C-14.64,-12.204 -15.765,-11.356 -17.033,-10.768C-18.308,-10.175 -19.696,-9.857 -21.161,-9.859C-23.136,-9.862 -24.918,-10.398 -26.504,-11.408C-28.089,-12.419 -29.364,-13.806 -30.297,-15.55C-31.227,-17.284 -31.74,-19.264 -31.74,-21.48C-31.74,-23.778 -31.229,-25.814 -30.297,-27.586C-29.367,-29.359 -28.086,-30.765 -26.504,-31.78C-24.916,-32.8 -23.136,-33.34 -21.161,-33.343C-19.696,-33.345 -18.313,-33.016 -17.033,-32.408C-15.769,-31.81 -14.639,-30.962 -13.68,-29.884C-12.71,-28.793 -11.951,-27.529 -11.408,-26.103C-10.865,-24.678 -10.581,-23.137 -10.581,-21.48M40.348,-58.912L28.484,-58.912L21.03,-47.61L28.805,-47.61L40.348,-58.912ZM24.558,-43.282C21.672,-43.282 18.979,-42.712 16.476,-41.625C13.978,-40.541 11.768,-39.007 9.877,-37.057C7.979,-35.098 6.493,-32.792 5.429,-30.165C4.362,-27.536 3.798,-24.661 3.798,-21.561C3.798,-18.462 4.362,-15.6 5.429,-12.985C6.493,-10.369 7.985,-8.095 9.877,-6.158C11.773,-4.214 13.978,-2.701 16.476,-1.631C18.979,-0.557 21.672,0 24.558,0C27.443,0 30.147,-0.56 32.652,-1.631C35.163,-2.703 37.368,-4.214 39.279,-6.158C41.182,-8.095 42.672,-10.366 43.754,-12.985C44.837,-15.603 45.396,-18.462 45.396,-21.561C45.396,-24.661 44.837,-27.533 43.754,-30.165C42.672,-32.797 41.188,-35.1 39.279,-37.057C37.374,-39.009 35.163,-40.538 32.652,-41.625C30.147,-42.709 27.443,-43.282 24.558,-43.282M24.558,-9.699C22.661,-9.699 20.95,-10.226 19.427,-11.209C17.897,-12.197 16.676,-13.56 15.768,-15.323C14.86,-17.086 14.378,-19.143 14.378,-21.48C14.378,-23.872 14.865,-25.985 15.768,-27.786C16.676,-29.597 17.895,-31.02 19.427,-32.035C20.948,-33.045 22.661,-33.583 24.558,-33.583C26.455,-33.583 28.167,-33.043 29.687,-32.035C31.218,-31.018 32.44,-29.597 33.348,-27.786C34.249,-25.985 34.736,-23.872 34.736,-21.48C34.736,-19.143 34.252,-17.081 33.348,-15.323C32.443,-13.563 31.218,-12.197 29.687,-11.209C28.167,-10.226 26.455,-9.699 24.558,-9.699" style="fill:white;fill-rule:nonzero;stroke:white;stroke-width:0.26px;"/>
    </g>
    <g transform="matrix(4.166667,0,0,4.166667,414.563958,54.587795)">
        <path d="M0,55.818L0.146,55.818C1.893,55.206 5.502,54.785 9.669,54.785C13.838,54.785 17.447,55.206 19.194,55.818L19.234,55.818L19.234,7.943C19.234,3.574 14.906,0 9.618,0C4.327,0 0,3.577 0,7.943L0,55.818Z" style="fill:white;stroke:white;stroke-width:0.24px;"/>
    </g>
    <g transform="matrix(4.166667,0,0,4.166667,510.678125,54.587795)">
        <path d="M0,55.818L0.146,55.818C1.893,55.206 5.502,54.785 9.669,54.785C13.838,54.785 17.447,55.206 19.194,55.818L19.234,55.818L19.234,7.943C19.234,3.574 14.907,0 9.618,0C4.326,0 0,3.577 0,7.943L0,55.818Z" style="fill:white;stroke:white;stroke-width:0.24px;"/>
    </g>
    <g transform="matrix(4.166667,0,0,4.166667,635.317708,47.315295)">
        <path d="M0,58.163L0.145,58.138C1.764,57.241 5.25,56.218 9.357,55.516C13.467,54.813 17.095,54.621 18.92,54.929L18.959,54.922L10.773,7.101C10.038,2.794 5.17,0 -0.044,0.892C-5.259,1.783 -8.923,6.038 -8.186,10.342L0,58.163Z" style="fill:white;stroke:white;stroke-width:0.24px;"/>
    </g>
    <g transform="matrix(0,119.217936,119.217936,0,454.631572,221.399358)">
        <path d="M0.593,0.335C0.615,0.274 0.629,0.148 0.629,0.002C0.629,-0.144 0.615,-0.27 0.593,-0.331L0.593,-0.336L2.573,-0.336C2.726,-0.336 2.851,-0.185 2.851,0C2.851,0.185 2.726,0.336 2.573,0.336L0.593,0.336L0.593,0.335Z" style="fill:url(#_Linear1);fill-rule:nonzero;"/>
    </g>
    <g transform="matrix(0,123.893229,123.893229,0,550.752845,226.074651)">
        <path d="M0.533,0.322C0.554,0.263 0.568,0.142 0.568,0.002C0.568,-0.138 0.554,-0.26 0.533,-0.319L0.533,-0.323L2.438,-0.323C2.585,-0.323 2.705,-0.178 2.705,-0C2.705,0.178 2.585,0.323 2.438,0.323L0.533,0.323L0.533,0.322Z" style="fill:url(#_Linear2);fill-rule:nonzero;"/>
    </g>
    <g transform="matrix(0,133.243815,133.243815,0,652.065313,222.567163)">
        <path d="M2.249,-0.424C2.384,-0.447 2.517,-0.333 2.545,-0.17C2.573,-0.007 2.485,0.146 2.351,0.169L0.605,0.467L0.605,0.466C0.614,0.409 0.608,0.295 0.586,0.167C0.564,0.038 0.532,-0.071 0.504,-0.121L0.503,-0.126L2.249,-0.424Z" style="fill:url(#_Linear3);fill-rule:nonzero;"/>
    </g>
    <g transform="matrix(4.166667,0,0,4.166667,1025.820625,358.987795)">
        <path d="M0,7.595L-3.573,7.595L-3.573,1.513L-4.915,1.513L-4.915,8.776L-0.059,8.776L0,7.595ZM-14.329,5.684L-16.503,5.684L-15.584,3.351C-15.525,3.205 -15.481,3.016 -15.467,2.812L-15.365,2.812C-15.351,3.016 -15.307,3.22 -15.248,3.351L-14.329,5.684ZM-11.763,8.732L-14.68,1.513L-16.064,1.513L-18.996,8.776L-17.698,8.776L-16.896,6.705L-13.936,6.705L-13.09,8.822L-11.763,8.732ZM-24.284,1.513L-31.313,1.513L-31.226,2.68L-28.47,2.68L-28.47,8.776L-27.128,8.776L-27.128,2.68L-24.371,2.68L-24.284,1.513ZM-38.19,1.513L-39.532,1.513L-39.532,8.776L-38.19,8.776L-38.19,1.513ZM-48.655,5.538L-48.655,7.551C-48.946,7.639 -49.486,7.755 -49.968,7.755C-51.718,7.755 -52.928,6.968 -52.928,5.291C-52.928,3.278 -51.63,2.52 -50.157,2.52C-49.398,2.52 -48.393,2.739 -47.707,3.06L-47.415,1.834C-48.275,1.485 -49.312,1.368 -50.216,1.368C-52.345,1.368 -54.343,2.637 -54.343,5.247C-54.343,7.566 -52.637,8.939 -50.099,8.939C-49.15,8.939 -48.042,8.703 -47.313,8.455L-47.313,5.538L-48.655,5.538ZM-61.584,1.513L-62.926,1.513L-62.926,8.776L-61.584,8.776L-61.584,1.513ZM-71.567,5.116C-71.567,6.735 -72.646,7.741 -74.295,7.741C-74.806,7.741 -75.345,7.712 -75.826,7.682L-75.826,2.608C-75.52,2.593 -74.82,2.564 -74.411,2.564C-72.852,2.564 -71.567,3.337 -71.567,5.116M-70.183,5.013C-70.183,2.739 -71.859,1.455 -74.28,1.455C-74.907,1.455 -75.724,1.513 -76.453,1.513L-77.139,1.513L-77.139,8.776L-76.409,8.776C-75.782,8.776 -74.966,8.851 -74.236,8.851C-71.933,8.851 -70.183,7.551 -70.183,5.013M-88.639,8.762L-88.639,1.513L-89.835,1.513L-89.835,6.326C-89.835,6.516 -89.82,6.807 -89.806,7.012L-89.893,7.012C-89.966,6.749 -90.083,6.531 -90.229,6.341L-93.933,1.513L-95.376,1.513L-95.376,8.776L-94.181,8.776L-94.181,3.643C-94.181,3.512 -94.195,3.205 -94.21,3.016L-94.122,3.016C-94.049,3.235 -93.918,3.483 -93.772,3.672L-89.732,8.924L-88.639,8.762ZM-104.426,-1.344L-105.885,-1.344L-106.964,0.916L-106.074,0.916L-104.426,-1.344ZM-104.032,5.101C-104.032,6.72 -105.155,7.814 -106.613,7.814C-107.97,7.814 -109.093,6.822 -109.093,5.159C-109.093,3.366 -107.81,2.476 -106.512,2.476C-105.243,2.476 -104.032,3.351 -104.032,5.101M-102.618,5.013C-102.618,2.768 -104.455,1.368 -106.438,1.368C-108.597,1.368 -110.508,2.797 -110.508,5.291C-110.508,7.551 -108.611,8.924 -106.687,8.924C-104.572,8.924 -102.618,7.551 -102.618,5.013M-117.749,1.513L-119.091,1.513L-119.091,8.776L-117.749,8.776L-117.749,1.513ZM-126.683,8.441L-126.974,7.216C-127.616,7.537 -128.505,7.755 -129.235,7.755C-130.751,7.755 -132.049,6.983 -132.049,5.262C-132.049,3.278 -130.839,2.52 -129.308,2.52C-128.505,2.52 -127.616,2.739 -126.945,3.06L-126.668,1.834C-127.543,1.485 -128.593,1.368 -129.424,1.368C-131.509,1.368 -133.464,2.695 -133.464,5.305C-133.464,7.58 -131.626,8.924 -129.41,8.924C-128.257,8.924 -127.339,8.718 -126.683,8.441M-142.12,5.684L-144.293,5.684L-143.374,3.351C-143.316,3.205 -143.272,3.016 -143.257,2.812L-143.155,2.812C-143.141,3.016 -143.097,3.22 -143.039,3.351L-142.12,5.684ZM-139.553,8.732L-142.47,1.513L-143.855,1.513L-146.787,8.776L-145.489,8.776L-144.687,6.705L-141.726,6.705L-140.88,8.822L-139.553,8.732ZM-153.226,8.441L-153.518,7.216C-154.16,7.537 -155.049,7.755 -155.778,7.755C-157.295,7.755 -158.593,6.983 -158.593,5.262C-158.593,3.278 -157.382,2.52 -155.851,2.52C-155.049,2.52 -154.16,2.739 -153.489,3.06L-153.211,1.834C-154.086,1.485 -155.137,1.368 -155.968,1.368C-158.053,1.368 -160.007,2.695 -160.007,5.305C-160.007,7.58 -158.17,8.924 -155.953,8.924C-154.801,8.924 -153.882,8.718 -153.226,8.441M-167.176,1.513L-168.445,1.513L-168.445,5.86C-168.445,6.997 -169.043,7.697 -170.355,7.697C-171.726,7.697 -172.178,7.012 -172.178,5.86L-172.178,1.513L-173.52,1.513L-173.52,6.18C-173.52,7.945 -172.338,8.924 -170.297,8.924C-168.313,8.924 -167.176,7.653 -167.176,6.18L-167.176,1.513ZM-182.089,5.116C-182.089,6.735 -183.168,7.741 -184.816,7.741C-185.326,7.741 -185.866,7.712 -186.347,7.682L-186.347,2.608C-186.041,2.593 -185.341,2.564 -184.932,2.564C-183.372,2.564 -182.089,3.337 -182.089,5.116M-180.703,5.013C-180.703,2.739 -182.38,1.455 -184.801,1.455C-185.428,1.455 -186.245,1.513 -186.974,1.513L-187.66,1.513L-187.66,8.776L-186.93,8.776C-186.303,8.776 -185.486,8.851 -184.757,8.851C-182.454,8.851 -180.703,7.551 -180.703,5.013M-195.105,7.61L-198.912,7.61L-198.912,5.656L-195.645,5.656L-195.645,4.532L-198.912,4.532L-198.912,2.68L-195.368,2.68L-195.295,1.513L-200.239,1.513L-200.239,8.776L-195.149,8.776L-195.105,7.61Z" style="fill:white;fill-rule:nonzero;stroke:white;stroke-width:0.24px;"/>
    </g>
    <g transform="matrix(4.166667,0,0,4.166667,1141.266875,90.391545)">
        <path d="M0,-0.124C0.367,-0.124 0.613,-0.246 0.613,-0.614C0.613,-0.858 0.367,-0.98 0.122,-0.98L-0.368,-0.98L-0.368,-0.124L0,-0.124ZM-0.368,1.224L-0.368,0.122L0,0.122L0.613,1.224L1.103,1.224L0.367,0.122C0.735,0.122 0.979,-0.124 0.979,-0.614C0.979,-1.103 0.735,-1.226 0.122,-1.226L-0.857,-1.226L-0.857,1.224L-0.368,1.224ZM0,1.838C0.979,1.838 1.837,0.979 1.837,-0.001C1.837,-1.103 0.979,-1.838 0,-1.838C-0.98,-1.838 -1.715,-1.103 -1.715,-0.001C-1.715,0.979 -0.98,1.838 0,1.838M-2.205,-0.001C-2.205,-1.226 -1.104,-2.206 0,-2.206C1.226,-2.206 2.205,-1.226 2.205,-0.001C2.205,1.224 1.226,2.082 0,2.082C-1.104,2.082 -2.205,1.224 -2.205,-0.001" style="fill:rgb(108,110,112);stroke:white;stroke-width:0.24px;"/>
    </g>
    <defs>
        <linearGradient id="_Linear1" x1="0" y1="0" x2="1" y2="0" gradientUnits="userSpaceOnUse" gradientTransform="matrix(1,0,0,-1,0,0.000033)"><stop offset="0" style="stop-color:white;stop-opacity:1"/><stop offset="1" style="stop-color:white;stop-opacity:0"/></linearGradient>
        <linearGradient id="_Linear2" x1="0" y1="0" x2="1" y2="0" gradientUnits="userSpaceOnUse" gradientTransform="matrix(1,0,0,-1,0,-0.000043)"><stop offset="0" style="stop-color:white;stop-opacity:1"/><stop offset="1" style="stop-color:white;stop-opacity:0"/></linearGradient>
        <linearGradient id="_Linear3" x1="0" y1="0" x2="1" y2="0" gradientUnits="userSpaceOnUse" gradientTransform="matrix(1,0,0,-1,0,0.020068)"><stop offset="0" style="stop-color:white;stop-opacity:1"/><stop offset="1" style="stop-color:white;stop-opacity:0"/></linearGradient>
    </defs>
</svg>
